<svg xmlns="http://www.w3.org/2000/svg" viewBox="0 0 96 96" role="img" aria-label="优益思达国际课程中心">
  <defs>
    <linearGradient id="shield" x1="18" y1="8" x2="78" y2="88" gradientUnits="userSpaceOnUse">
      <stop offset="0" stop-color="#102A4C"/>
      <stop offset="1" stop-color="#061427"/>
    </linearGradient>
    <linearGradient id="gold" x1="28" y1="20" x2="72" y2="78" gradientUnits="userSpaceOnUse">
      <stop offset="0" stop-color="#F1D38A"/>
      <stop offset="1" stop-color="#B88A35"/>
    </linearGradient>
  </defs>
  <path d="M48 6 82 18v27c0 21.4-12.8 36.7-34 45-21.2-8.3-34-23.6-34-45V18L48 6Z" fill="url(#shield)"/>
  <path d="M48 11.5 76.5 21v23.7c0 17.8-10.6 31.3-28.5 38.6-17.9-7.3-28.5-20.8-28.5-38.6V21L48 11.5Z" fill="none" stroke="url(#gold)" stroke-width="2.4"/>
  <path d="M31 34.5c7.5-.5 13.2 1.5 17 6 3.8-4.5 9.5-6.5 17-6v23c-7.3-.4-12.9 1.5-17 5.9-4.1-4.4-9.7-6.3-17-5.9v-23Z" fill="none" stroke="url(#gold)" stroke-width="3.1" stroke-linecap="round" stroke-linejoin="round"/>
  <path d="M48 40.5v22.2" fill="none" stroke="url(#gold)" stroke-width="3" stroke-linecap="round"/>
  <path d="M36.5 28.5 48 18l11.5 10.5M48 18v15.5" fill="none" stroke="url(#gold)" stroke-width="3" stroke-linecap="round" stroke-linejoin="round"/>
  <circle cx="48" cy="18" r="3.2" fill="#F1D38A"/>
</svg>
